<?xml version="1.0" encoding="UTF-8"?>
<svg version="1.1" xmlns="http://www.w3.org/2000/svg" width="512" height="512">
<path d="M0 0 C2.45214446 2.14746184 4.73511415 4.36525786 6.984375 6.72265625 C7.5309375 7.24988281 8.0775 7.77710938 8.640625 8.3203125 C21.12244784 21.3000804 24.521074 39.60919667 26.984375 56.72265625 C30.74120318 55.22494524 32.5045855 53.10289308 34.921875 49.91015625 C37.76543076 46.25490409 40.57660727 42.8748414 43.984375 39.72265625 C44.84095703 38.91054687 44.84095703 38.91054687 45.71484375 38.08203125 C60.57255708 24.44021861 77.03076814 21.00323326 96.59521484 21.59521484 C113.39980571 22.49159707 128.35074641 32.55694932 139.609375 44.41015625 C154.66164096 61.80270384 160.22777538 81.58365555 159.1796875 104.17431641 C156.88789907 134.07642596 142.27674049 159.99720278 119.984375 179.72265625 C102.51965719 194.60729505 81.05731064 201.43287789 59.234375 207.16015625 C56.86779875 207.79594704 54.50167445 208.4334223 52.13598633 209.07250977 C47.37604145 210.35546485 42.61332365 211.62725692 37.84814453 212.890625 C31.44237611 214.59310703 25.05372427 216.35308422 18.66796875 218.12890625 C15.87998121 218.89870821 13.09156455 219.66692532 10.30285645 220.43411255 C8.56803237 220.91285332 6.83403945 221.39461773 5.10095215 221.87960815 C2.71470947 222.54540228 0.32489258 223.19638899 -2.06640625 223.84375 C-3.08475304 224.13318481 -3.08475304 224.13318481 -4.12367249 224.4284668 C-8.94673293 225.71182764 -14.0679408 226.71575016 -19.015625 225.72265625 C-23.14188887 223.31258573 -26.46815931 220.51615282 -29.82763672 217.13769531 C-30.72811737 216.2370636 -31.62859802 215.33643188 -32.55636597 214.4085083 C-33.51945713 213.43520711 -34.48243675 212.46179555 -35.4453125 211.48828125 C-36.445209 210.48464933 -37.4455519 209.48146196 -38.44631958 208.47869873 C-41.0646441 205.85277944 -43.67690345 203.22090775 -46.28790283 200.58770752 C-48.95909872 197.89596319 -51.6360458 195.20995163 -54.3125 192.5234375 C-59.55248836 187.26207265 -64.78607611 181.99439975 -70.015625 176.72265625 C-70.65886719 177.84800781 -71.30210937 178.97335937 -71.96484375 180.1328125 C-72.87679498 181.68406974 -73.78960356 183.23482318 -74.703125 184.78515625 C-75.32670898 185.8844043 -75.32670898 185.8844043 -75.96289062 187.00585938 C-84.62689521 201.5687607 -97.48227831 213.49518299 -109.3984375 225.37109375 C-110.83027731 226.80428519 -112.26182051 228.23777303 -113.69308472 229.67153931 C-116.65967579 232.64104681 -119.62977291 235.60698727 -122.60253906 238.5703125 C-126.41464886 242.37090379 -130.21753846 246.18057612 -134.01794624 249.99286461 C-136.95677801 252.93890338 -139.90033099 255.88018752 -142.84536362 258.8200264 C-144.25108506 260.22441458 -145.65532481 261.63028749 -147.05804825 263.03767014 C-149.00542723 264.99010867 -150.95906567 266.93605605 -152.91455078 268.88037109 C-153.49113937 269.46100815 -154.06772797 270.0416452 -154.66178894 270.63987732 C-158.16268435 274.1036782 -160.18356692 275.61814062 -165.18463135 275.90344238 C-169.44982222 275.70216631 -173.19738227 274.90420895 -177.31152344 273.83007812 C-178.51085762 273.52748581 -178.51085762 273.52748581 -179.73442078 273.21878052 C-182.36695436 272.55181754 -184.99603927 271.87230596 -187.625 271.19140625 C-189.47511781 270.71700759 -191.32531868 270.24293281 -193.17559814 269.76916504 C-197.05725074 268.77290055 -200.93709355 267.76991189 -204.81591797 266.76269531 C-209.72996881 265.48764059 -214.64906141 264.23343384 -219.56994247 262.98503876 C-223.39932376 262.01019163 -227.22509845 261.02172427 -231.05005646 260.02967834 C-232.85852597 259.56272551 -234.6681609 259.10025769 -236.47905731 258.64280701 C-270.39604527 250.05208414 -302.14547162 233.05148084 -320.90625 202.37109375 C-334.69387045 178.83705195 -342.96351159 150.41047565 -336.18359375 123.1953125 C-332.47269653 112.16190906 -326.89575396 102.31493832 -319.015625 93.72265625 C-318.39042969 93.01753906 -317.76523437 92.31242187 -317.12109375 91.5859375 C-304.28497587 77.8609642 -286.88584804 71.37461079 -268.453125 70.70703125 C-251.50412014 70.51642825 -235.18461791 78.12607242 -223.015625 89.72265625 C-218.66436571 94.16485826 -214.61519049 98.72821936 -211.078125 103.84765625 C-210.0571875 105.27078125 -210.0571875 105.27078125 -209.015625 106.72265625 C-208.355625 106.72265625 -207.695625 106.72265625 -207.015625 106.72265625 C-206.92587402 106.13476318 -206.83612305 105.54687012 -206.74365234 104.94116211 C-204.101246 88.06826234 -200.89333042 73.38244762 -190.015625 59.72265625 C-189.36207031 58.80806641 -189.36207031 58.80806641 -188.6953125 57.875 C-180.37041316 46.93299159 -165.30129733 39.21111659 -151.953125 37.0078125 C-140.17641772 35.8645949 -129.54454007 36.52893617 -118.17578125 39.84765625 C-115.08026472 40.85607877 -115.08026472 40.85607877 -112.015625 40.72265625 C-111.603125 39.706875 -111.190625 38.69109375 -110.765625 37.64453125 C-102.0136623 16.56937313 -89.62258489 1.32389884 -68.46875 -7.80859375 C-45.30428847 -16.66256571 -20.09363709 -15.17433992 0 0 Z " fill="#F86689" transform="translate(346.015625,124.27734375)"/>
<path d="M0 0 C2.45214446 2.14746184 4.73511415 4.36525786 6.984375 6.72265625 C7.5309375 7.24988281 8.0775 7.77710938 8.640625 8.3203125 C21.12244784 21.3000804 24.521074 39.60919667 26.984375 56.72265625 C30.74120318 55.22494524 32.5045855 53.10289308 34.921875 49.91015625 C37.76543076 46.25490409 40.57660727 42.8748414 43.984375 39.72265625 C44.55542969 39.18125 45.12648438 38.63984375 45.71484375 38.08203125 C60.57255708 24.44021861 77.03076814 21.00323326 96.59521484 21.59521484 C113.39980571 22.49159707 128.35074641 32.55694932 139.609375 44.41015625 C154.66164096 61.80270384 160.22777538 81.58365555 159.1796875 104.17431641 C156.88789907 134.07642596 142.27674049 159.99720278 119.984375 179.72265625 C102.51965719 194.60729505 81.05731064 201.43287789 59.234375 207.16015625 C56.86779875 207.79594704 54.50167445 208.4334223 52.13598633 209.07250977 C47.37604145 210.35546485 42.61332365 211.62725692 37.84814453 212.890625 C31.44237611 214.59310703 25.05372427 216.35308422 18.66796875 218.12890625 C15.87998121 218.89870821 13.09156455 219.66692532 10.30285645 220.43411255 C8.56803237 220.91285332 6.83403945 221.39461773 5.10095215 221.87960815 C2.71470947 222.54540228 0.32489258 223.19638899 -2.06640625 223.84375 C-3.08475304 224.13318481 -3.08475304 224.13318481 -4.12367249 224.4284668 C-8.94673293 225.71182764 -14.0679408 226.71575016 -19.015625 225.72265625 C-23.18266165 223.29212238 -26.52790486 220.4561649 -29.91943359 217.04589844 C-30.839935 216.12524597 -31.7604364 215.20459351 -32.70883179 214.25604248 C-33.6940176 213.26064652 -34.67909195 212.26514022 -35.6640625 211.26953125 C-36.68637935 210.24347915 -37.70914245 209.2178715 -38.73233032 208.19268799 C-41.40983731 205.50758483 -44.08128048 202.81652808 -46.75146484 200.12414551 C-49.48298551 197.37207945 -52.22025443 194.62574365 -54.95703125 191.87890625 C-60.31550738 186.49905116 -65.66758432 181.11288734 -71.015625 175.72265625 C-70.81474274 175.05747482 -70.61386047 174.3922934 -70.40689087 173.70695496 C-70.14064911 172.82292496 -69.87440735 171.93889496 -69.60009766 171.02807617 C-69.33734039 170.15664474 -69.07458313 169.28521332 -68.80386353 168.38737488 C-67.59164416 164.2893469 -66.48162914 160.16682932 -65.390625 156.03515625 C-65.1740625 155.23271484 -64.9575 154.43027344 -64.734375 153.60351562 C-57.42069852 125.95149808 -62.43420524 98.37377322 -76.1640625 73.7265625 C-79.05784973 69.03178955 -82.37018574 64.85122601 -86.015625 60.72265625 C-86.53382813 60.09875 -87.05203125 59.47484375 -87.5859375 58.83203125 C-92.11671276 53.77759854 -97.81687597 50.72122347 -103.7109375 47.51953125 C-106.52768792 45.98796483 -109.28071906 44.39456101 -112.015625 42.72265625 C-108.56354052 30.94495625 -103.21918655 19.91064518 -95.015625 10.72265625 C-94.37238281 9.975 -93.72914063 9.22734375 -93.06640625 8.45703125 C-69.71645612 -16.92147278 -27.33866327 -20.64564856 0 0 Z " fill="#F4406B" transform="translate(346.015625,124.27734375)"/>
<path d="M0 0 C9.1984718 5.61396703 13.73469131 14.8497986 16.3359375 25.0546875 C18.48468908 39.40834806 16.17572671 52.61701595 7.97265625 64.71875 C4.19610182 69.67096224 0.09956047 74.33012525 -4.03515625 78.984375 C-7.69208668 83.10555787 -11.13766979 87.37454393 -14.56640625 91.6875 C-16.2734375 93.6640625 -16.2734375 93.6640625 -18.2734375 94.6640625 C-23.5768643 94.91569255 -28.44673983 94.27682878 -33.62890625 93.30859375 C-34.80323967 93.09332283 -34.80323967 93.09332283 -36.001297 92.873703 C-37.65163766 92.56850323 -39.3013476 92.25987502 -40.95043945 91.94799805 C-43.43397042 91.48162653 -45.92067023 91.03625449 -48.40820312 90.59179688 C-65.3869479 87.46620777 -78.67903247 82.40569313 -89.02734375 67.77734375 C-94.76194802 58.05188636 -97.21026632 47.00642762 -94.625 35.87109375 C-91.70330996 27.81771737 -86.95257604 21.83207258 -79.3984375 17.7265625 C-71.72054232 14.28835225 -64.21882533 13.63659576 -56.2734375 16.6640625 C-51.23875513 19.46933487 -46.68415104 22.96475437 -42.2734375 26.6640625 C-42.33144531 26.05820312 -42.38945312 25.45234375 -42.44921875 24.828125 C-42.90797225 16.30841714 -40.29561431 10.32248706 -34.8984375 3.7890625 C-24.32255001 -4.77237023 -12.33417082 -5.82537355 0 0 Z " fill="#F6406B" transform="translate(449.2734375,389.3359375)"/>
<path d="M0 0 C6.74662665 4.87256369 10.0452495 11.53041238 11.4609375 19.640625 C11.70680578 21.75376321 11.86303354 23.8770199 12 26 C12.4846875 25.54109375 12.969375 25.0821875 13.46875 24.609375 C21.97241371 16.82525207 27.65076385 14.28153219 39.4296875 14.609375 C44.07064022 15.11713788 47.23414009 16.30741017 51 19 C51.86625 19.53625 52.7325 20.0725 53.625 20.625 C59.96407757 26.96407757 63.96290215 35.12512792 64.375 44.0625 C64.09808052 56.78348854 58.75822963 66.96942592 50.375 76.1875 C40.69643124 85.33847761 28.61629674 87.62668453 16 90 C14.07807606 90.37735498 12.15620279 90.75496811 10.234375 91.1328125 C8.28163257 91.50720927 6.32851141 91.87963654 4.375 92.25 C3.00722412 92.51321045 3.00722412 92.51321045 1.61181641 92.78173828 C-3.67075314 93.74600913 -8.6380795 94.55985607 -14 94 C-16.43359375 92.19921875 -16.43359375 92.19921875 -18.4375 89.6875 C-19.18902344 88.77226563 -19.94054687 87.85703125 -20.71484375 86.9140625 C-21.46894531 85.95242187 -22.22304687 84.99078125 -23 84 C-24.49898957 82.18666426 -25.99898516 80.37415965 -27.5 78.5625 C-28.23734375 77.64597656 -28.9746875 76.72945313 -29.734375 75.78515625 C-31.25648262 73.91401361 -32.80942471 72.06757447 -34.390625 70.24609375 C-45.27931576 57.57266725 -49.01881884 44.63215627 -48.1953125 28.18261719 C-47.28727399 18.03528682 -42.22710111 9.42371047 -35.3125 2.1875 C-24.24440683 -5.12161813 -11.72893721 -6.74513966 0 0 Z " fill="#F86689" transform="translate(95,39)"/>
<path d="M0 0 C4.44493804 3.19550912 8.9702452 6.79875332 11 12 C11.63527387 17.0027817 11.61841846 18.94270393 9.0625 23.3125 C4.04009186 28.4468281 -2.54234718 29.19138303 -9.4375 29.5 C-18.4575551 29.2787136 -25.69645705 25.30354295 -32 19 C-34.37302948 15.84832022 -35.84211459 12.85959836 -36.5625 8.9375 C-35.79428109 4.92569015 -34.06527702 2.561593 -31 0 C-21.43190106 -6.32666134 -9.73206565 -5.5938932 0 0 Z " fill="#F76688" transform="translate(454,185)"/>
<path d="M0 0 C3.88805888 1.36008143 7.13635582 2.94521102 9.3046875 6.46875 C10.12135188 11.41127088 9.89478255 15.26586394 7.6796875 19.78125 C1.65647819 26.59698685 -4.73084491 30.82432973 -13.94921875 31.8203125 C-21.0536712 32.00142253 -27.49683897 31.77196079 -33.2890625 27.21484375 C-35.96041797 24.49154526 -36.72119298 22.32287822 -37.3828125 18.59375 C-36.99823097 13.42655201 -34.36825469 9.961646 -30.6953125 6.46875 C-20.97470964 -0.38323459 -11.72431507 -2.31087949 0 0 Z " fill="#F884A0" transform="translate(220.6953125,195.53125)"/>
</svg>
